<?xml version="1.0" encoding="UTF-8" standalone="no"?>
<!-- Created with Inkscape (http://www.inkscape.org/) -->

<svg
   width="210mm"
   height="297mm"
   viewBox="0 0 210 297"
   version="1.1"
   id="svg5"
   inkscape:version="1.1.2 (b8e25be833, 2022-02-05)"
   sodipodi:docname="donut.svg"
   xmlns:inkscape="http://www.inkscape.org/namespaces/inkscape"
   xmlns:sodipodi="http://sodipodi.sourceforge.net/DTD/sodipodi-0.dtd"
   xmlns:xlink="http://www.w3.org/1999/xlink"
   xmlns="http://www.w3.org/2000/svg"
   xmlns:svg="http://www.w3.org/2000/svg">
  <sodipodi:namedview
     id="namedview7"
     pagecolor="#ffffff"
     bordercolor="#666666"
     borderopacity="1.0"
     inkscape:pageshadow="2"
     inkscape:pageopacity="0.0"
     inkscape:pagecheckerboard="0"
     inkscape:document-units="mm"
     showgrid="false"
     inkscape:zoom="0.7198092"
     inkscape:cx="122.94925"
     inkscape:cy="561.95447"
     inkscape:window-width="1920"
     inkscape:window-height="1001"
     inkscape:window-x="-9"
     inkscape:window-y="-9"
     inkscape:window-maximized="1"
     inkscape:current-layer="layer1" />
  <defs
     id="defs2">
    <symbol
       id="u"
       overflow="visible">
      <path
         d="m28.438-1.7031c-1.4609 0.76172-2.9844 1.3359-4.5781 1.7188s-3.25 0.57812-4.9688 0.57812c-5.1562 0-9.2461-1.4375-12.266-4.3125-3.0117-2.8828-4.5156-6.7891-4.5156-11.719 0-4.9453 1.5039-8.8633 4.5156-11.75 3.0195-2.8828 7.1094-4.3281 12.266-4.3281 1.7188 0 3.375 0.19922 4.9688 0.59375 1.5938 0.38672 3.1172 0.96094 4.5781 1.7188v6.4062c-1.4805-1.0078-2.9375-1.75-4.375-2.2188s-2.9492-0.70312-4.5312-0.70312c-2.8555 0-5.1016 0.91406-6.7344 2.7344-1.625 1.8242-2.4375 4.3398-2.4375 7.5469 0 3.1875 0.8125 5.6953 2.4375 7.5156 1.6328 1.8242 3.8789 2.7344 6.7344 2.7344 1.582 0 3.0938-0.23438 4.5312-0.70312s2.8945-1.207 4.375-2.2188z"
         id="path166" />
    </symbol>
    <symbol
       id="b"
       overflow="visible">
      <path
         d="m20.812-16.891c-0.64844-0.30078-1.293-0.52344-1.9375-0.67188-0.64844-0.14453-1.293-0.21875-1.9375-0.21875-1.9062 0-3.375 0.61719-4.4062 1.8438-1.0312 1.2188-1.5469 2.9648-1.5469 5.2344v10.703h-7.4219v-23.219h7.4219v3.8125c0.95703-1.5195 2.0508-2.6289 3.2812-3.3281 1.2383-0.69531 2.7227-1.0469 4.4531-1.0469 0.25 0 0.51953 0.011719 0.8125 0.03125 0.28906 0.023438 0.71094 0.070312 1.2656 0.14062z"
         id="path169" />
    </symbol>
    <symbol
       id="d"
       overflow="visible">
      <path
         d="m26.734-11.672v2.1094h-17.344c0.17578 1.75 0.80078 3.0625 1.875 3.9375 1.082 0.86719 2.5938 1.2969 4.5312 1.2969 1.5625 0 3.1602-0.22656 4.7969-0.6875 1.6328-0.46875 3.3164-1.1719 5.0469-2.1094v5.7188c-1.75 0.65625-3.5078 1.1523-5.2656 1.4844-1.75 0.34375-3.5078 0.51562-5.2656 0.51562-4.1992 0-7.4648-1.0625-9.7969-3.1875-2.3242-2.1328-3.4844-5.1328-3.4844-9 0-3.7812 1.1406-6.7539 3.4219-8.9219 2.2891-2.1758 5.4414-3.2656 9.4531-3.2656 3.6445 0 6.5625 1.1016 8.75 3.2969 2.1875 2.1992 3.2812 5.1367 3.2812 8.8125zm-7.625-2.4688c0-1.4062-0.41406-2.5391-1.2344-3.4062-0.82422-0.86328-1.8984-1.2969-3.2188-1.2969-1.4375 0-2.6055 0.40625-3.5 1.2188-0.89844 0.80469-1.4609 1.9648-1.6875 3.4844z"
         id="path172" />
    </symbol>
    <symbol
       id="a"
       overflow="visible">
      <path
         d="m13.969-10.453c-1.543 0-2.7031 0.26562-3.4844 0.79688-0.78125 0.52344-1.1719 1.293-1.1719 2.3125 0 0.94922 0.3125 1.6875 0.9375 2.2188s1.5 0.79688 2.625 0.79688c1.3945 0 2.5664-0.5 3.5156-1.5 0.95703-1.0078 1.4375-2.2656 1.4375-3.7656v-0.85938zm11.344-2.7969v13.25h-7.4844v-3.4375c-1 1.4062-2.1211 2.4336-3.3594 3.0781-1.2422 0.63281-2.7578 0.95312-4.5469 0.95312-2.3984 0-4.3438-0.69531-5.8438-2.0938-1.5-1.4062-2.25-3.2266-2.25-5.4688 0-2.7188 0.92969-4.7109 2.7969-5.9844 1.875-1.2695 4.8164-1.9062 8.8281-1.9062h4.375v-0.57812c0-1.1758-0.46484-2.0352-1.3906-2.5781-0.92969-0.55078-2.3711-0.82812-4.3281-0.82812-1.5938 0-3.0742 0.16406-4.4375 0.48438-1.3672 0.3125-2.6367 0.78906-3.8125 1.4219v-5.6562c1.582-0.38281 3.1758-0.67578 4.7812-0.875 1.6016-0.20703 3.207-0.3125 4.8125-0.3125 4.1875 0 7.207 0.82812 9.0625 2.4844 1.8633 1.6484 2.7969 4.3281 2.7969 8.0469z"
         id="path175" />
    </symbol>
    <symbol
       id="c"
       overflow="visible">
      <path
         d="m11.672-29.812v6.5938h7.6406v5.3125h-7.6406v9.8438c0 1.0742 0.21094 1.8047 0.64062 2.1875 0.42578 0.375 1.2734 0.5625 2.5469 0.5625h3.8125v5.3125h-6.3594c-2.9297 0-5.0078-0.60938-6.2344-1.8281-1.2188-1.2266-1.8281-3.3047-1.8281-6.2344v-9.8438h-3.6875v-5.3125h3.6875v-6.5938z"
         id="path178" />
    </symbol>
    <symbol
       id="k"
       overflow="visible">
      <path
         d="m19.359-19.812v-12.438h7.4688v32.25h-7.4688v-3.3594c-1.0234 1.3672-2.1484 2.3672-3.375 3-1.2305 0.63281-2.6523 0.95312-4.2656 0.95312-2.8672 0-5.2188-1.1328-7.0625-3.4062-1.8359-2.2695-2.75-5.1953-2.75-8.7812 0-3.5703 0.91406-6.4922 2.75-8.7656 1.8438-2.2812 4.1953-3.4219 7.0625-3.4219 1.5938 0 3.0078 0.32422 4.25 0.96875 1.2383 0.64844 2.3672 1.6484 3.3906 3zm-4.8906 15.031c1.5938 0 2.8047-0.57812 3.6406-1.7344 0.83203-1.1641 1.25-2.8594 1.25-5.0781 0-2.207-0.41797-3.8906-1.25-5.0469-0.83594-1.1641-2.0469-1.75-3.6406-1.75-1.5742 0-2.7812 0.58594-3.625 1.75-0.83594 1.1562-1.25 2.8398-1.25 5.0469 0 2.2188 0.41406 3.9141 1.25 5.0781 0.84375 1.1562 2.0508 1.7344 3.625 1.7344z"
         id="path181" />
    </symbol>
    <symbol
       id="j"
       overflow="visible">
      <path
         d="m15.922-4.7812c1.582 0 2.7891-0.57812 3.625-1.7344 0.84375-1.1641 1.2656-2.8594 1.2656-5.0781 0-2.207-0.42188-3.8906-1.2656-5.0469-0.83594-1.1641-2.043-1.75-3.625-1.75-1.5938 0-2.8203 0.58594-3.6719 1.75-0.84375 1.168-1.2656 2.8516-1.2656 5.0469 0 2.1992 0.42188 3.8867 1.2656 5.0625 0.85156 1.168 2.0781 1.75 3.6719 1.75zm-4.9375-15.031c1.0195-1.3516 2.1484-2.3516 3.3906-3 1.25-0.64453 2.6797-0.96875 4.2969-0.96875 2.8633 0 5.2109 1.1406 7.0469 3.4219 1.8438 2.2734 2.7656 5.1953 2.7656 8.7656 0 3.5859-0.92188 6.5117-2.7656 8.7812-1.8359 2.2734-4.1836 3.4062-7.0469 3.4062-1.6172 0-3.0469-0.32031-4.2969-0.95312-1.2422-0.64453-2.3711-1.6445-3.3906-3v3.3594h-7.4219v-32.25h7.4219z"
         id="path184" />
    </symbol>
    <symbol
       id="g"
       overflow="visible">
      <path
         d="m0.51562-23.219h7.4219l6.2344 15.75 5.3125-15.75h7.4219l-9.7656 25.422c-0.98047 2.582-2.125 4.3828-3.4375 5.4062-1.3047 1.0312-3.0234 1.5469-5.1562 1.5469h-4.2969v-4.8594h2.3281c1.25 0 2.1602-0.20312 2.7344-0.60938 0.57031-0.39844 1.0195-1.1172 1.3438-2.1562l0.20312-0.64062z"
         id="path187" />
    </symbol>
    <symbol
       id="i"
       overflow="visible">
      <path
         d="m11.875-24.922v18.891h2.8594c3.2578 0 5.75-0.80469 7.4688-2.4219 1.7266-1.6133 2.5938-3.9609 2.5938-7.0469 0-3.0703-0.85938-5.4102-2.5781-7.0156-1.7109-1.6016-4.2031-2.4062-7.4844-2.4062zm-7.9844-6.0312h8.4219c4.6953 0 8.1953 0.33984 10.5 1.0156 2.3008 0.66797 4.2734 1.8047 5.9219 3.4062 1.4453 1.3984 2.5195 3.0078 3.2188 4.8281 0.70703 1.8242 1.0625 3.8906 1.0625 6.2031 0 2.3359-0.35547 4.418-1.0625 6.25-0.69922 1.8242-1.7734 3.4336-3.2188 4.8281-1.6562 1.6055-3.6484 2.7461-5.9688 3.4219-2.3242 0.66797-5.8086 1-10.453 1h-8.4219z"
         id="path190" />
    </symbol>
    <symbol
       id="f"
       overflow="visible">
      <path
         d="m26.906-14.141v14.141h-7.4688v-10.828c0-2-0.046875-3.3789-0.14062-4.1406-0.085937-0.75781-0.23438-1.3164-0.45312-1.6719-0.29297-0.48828-0.6875-0.86328-1.1875-1.125-0.49219-0.26953-1.0547-0.40625-1.6875-0.40625-1.5547 0-2.7734 0.60156-3.6562 1.7969-0.88672 1.1875-1.3281 2.8398-1.3281 4.9531v11.422h-7.4219v-23.219h7.4219v3.4062c1.125-1.3516 2.3125-2.3516 3.5625-3 1.2578-0.64453 2.6484-0.96875 4.1719-0.96875 2.6758 0 4.707 0.82422 6.0938 2.4688 1.3945 1.6484 2.0938 4.0391 2.0938 7.1719z"
         id="path193" />
    </symbol>
    <symbol
       id="h"
       overflow="visible">
      <path
         d="m3.8906-30.953h13.25c3.9375 0 6.957 0.875 9.0625 2.625 2.1133 1.75 3.1719 4.2422 3.1719 7.4688 0 3.25-1.0586 5.75-3.1719 7.5-2.1055 1.75-5.125 2.625-9.0625 2.625h-5.2656v10.734h-7.9844zm7.9844 5.7812v8.6562h4.4219c1.5391 0 2.7344-0.375 3.5781-1.125 0.84375-0.75781 1.2656-1.832 1.2656-3.2188 0-1.375-0.42188-2.4375-1.2656-3.1875s-2.0391-1.125-3.5781-1.125z"
         id="path196" />
    </symbol>
    <symbol
       id="t"
       overflow="visible">
      <path
         d="m3.5625-23.219h7.4219v23.219h-7.4219zm0-9.0312h7.4219v6.0469h-7.4219z"
         id="path199" />
    </symbol>
    <symbol
       id="s"
       overflow="visible">
      <path
         d="m19.359-3.9375c-1.0234 1.3555-2.1484 2.3516-3.375 2.9844-1.2305 0.63672-2.6523 0.95312-4.2656 0.95312-2.8359 0-5.1797-1.1133-7.0312-3.3438-1.8555-2.2383-2.7812-5.082-2.7812-8.5312 0-3.4688 0.92578-6.3125 2.7812-8.5312 1.8516-2.2188 4.1953-3.3281 7.0312-3.3281 1.6133 0 3.0352 0.32031 4.2656 0.95312 1.2266 0.63672 2.3516 1.6367 3.375 3v-3.4375h7.4688v20.875c0 3.7266-1.1836 6.5781-3.5469 8.5469-2.3555 1.9688-5.7734 2.9531-10.25 2.9531-1.4492 0-2.8516-0.10938-4.2031-0.32812-1.3555-0.21875-2.7148-0.55859-4.0781-1.0156v-5.7812c1.3008 0.75 2.5703 1.3047 3.8125 1.6719 1.2383 0.36328 2.4883 0.54688 3.75 0.54688 2.4375 0 4.2188-0.53125 5.3438-1.5938 1.1328-1.0625 1.7031-2.7266 1.7031-5zm-4.8906-14.453c-1.5312 0-2.7305 0.57031-3.5938 1.7031-0.85547 1.1367-1.2812 2.7422-1.2812 4.8125 0 2.125 0.41016 3.7422 1.2344 4.8438 0.83203 1.0938 2.0469 1.6406 3.6406 1.6406 1.5508 0 2.7539-0.56641 3.6094-1.7031 0.85156-1.1328 1.2812-2.7266 1.2812-4.7812 0-2.0703-0.42969-3.6758-1.2812-4.8125-0.85547-1.1328-2.0586-1.7031-3.6094-1.7031z"
         id="path202" />
    </symbol>
    <symbol
       id="r"
       overflow="visible">
      <path
         d="m18.844-32.25v4.8594h-4.1094c-1.0547 0-1.7891 0.19531-2.2031 0.57812-0.40625 0.375-0.60938 1.0391-0.60938 1.9844v1.6094h6.3438v5.3125h-6.3438v17.906h-7.4219v-17.906h-3.6875v-5.3125h3.6875v-1.6094c0-2.5312 0.70312-4.3984 2.1094-5.6094 1.4141-1.207 3.5977-1.8125 6.5469-1.8125z"
         id="path205" />
    </symbol>
    <symbol
       id="e"
       overflow="visible">
      <path
         d="m14.609-18.469c-1.6484 0-2.9023 0.59375-3.7656 1.7812-0.85547 1.1797-1.2812 2.875-1.2812 5.0938 0 2.2305 0.42578 3.9375 1.2812 5.125 0.86328 1.1797 2.1172 1.7656 3.7656 1.7656 1.625 0 2.8633-0.58594 3.7188-1.7656 0.85156-1.1875 1.2812-2.8945 1.2812-5.125 0-2.2188-0.42969-3.9141-1.2812-5.0938-0.85547-1.1875-2.0938-1.7812-3.7188-1.7812zm0-5.3125c4 0 7.1172 1.0781 9.3594 3.2344 2.25 2.1562 3.375 5.1406 3.375 8.9531 0 3.8242-1.125 6.8125-3.375 8.9688-2.2422 2.1484-5.3594 3.2188-9.3594 3.2188s-7.1328-1.0703-9.3906-3.2188c-2.2617-2.1562-3.3906-5.1445-3.3906-8.9688 0-3.8125 1.1289-6.7969 3.3906-8.9531 2.2578-2.1562 5.3906-3.2344 9.3906-3.2344z"
         id="path208" />
    </symbol>
    <symbol
       id="q"
       overflow="visible">
      <path
         d="m25.078-19.359c0.9375-1.4375 2.0508-2.5312 3.3438-3.2812 1.3008-0.75781 2.7227-1.1406 4.2656-1.1406 2.6641 0 4.6953 0.82422 6.0938 2.4688 1.3945 1.6484 2.0938 4.0391 2.0938 7.1719v14.141h-7.4531v-12.109c0.007813-0.17578 0.015625-0.35938 0.015625-0.54688 0.007812-0.19531 0.015625-0.47656 0.015625-0.84375 0-1.6445-0.24609-2.832-0.73438-3.5625-0.48047-0.73828-1.2578-1.1094-2.3281-1.1094-1.4062 0-2.4961 0.57812-3.2656 1.7344-0.77344 1.1562-1.168 2.8359-1.1875 5.0312v11.406h-7.4688v-12.109c0-2.5703-0.22656-4.2227-0.67188-4.9531-0.4375-0.73828-1.2266-1.1094-2.3594-1.1094-1.418 0-2.5156 0.58594-3.2969 1.75-0.77344 1.168-1.1562 2.8359-1.1562 5v11.422h-7.4531v-23.219h7.4531v3.4062c0.91406-1.3125 1.9609-2.3008 3.1406-2.9688 1.1875-0.66406 2.4883-1 3.9062-1 1.6016 0 3.0195 0.39062 4.25 1.1719 1.2266 0.77344 2.1602 1.8555 2.7969 3.25z"
         id="path211" />
    </symbol>
    <symbol
       id="p"
       overflow="visible">
      <path
         d="m26.906-14.141v14.141h-7.4688v-10.781c0-2.0312-0.046875-3.4258-0.14062-4.1875-0.085937-0.75781-0.23438-1.3164-0.45312-1.6719-0.29297-0.48828-0.6875-0.86328-1.1875-1.125-0.49219-0.26953-1.0547-0.40625-1.6875-0.40625-1.5547 0-2.7734 0.60156-3.6562 1.7969-0.88672 1.1875-1.3281 2.8398-1.3281 4.9531v11.422h-7.4219v-32.25h7.4219v12.438c1.125-1.3516 2.3125-2.3516 3.5625-3 1.2578-0.64453 2.6484-0.96875 4.1719-0.96875 2.6758 0 4.707 0.82422 6.0938 2.4688 1.3945 1.6484 2.0938 4.0391 2.0938 7.1719z"
         id="path214" />
    </symbol>
    <symbol
       id="o"
       overflow="visible">
      <path
         d="m3.8906-30.953h8.9219l11.25 21.234v-21.234h7.5625v30.953h-8.9062l-11.25-21.234v21.234h-7.5781z"
         id="path217" />
    </symbol>
    <symbol
       id="n"
       overflow="visible">
      <path
         d="m3.3125-9.0312v-14.188h7.4688v2.3281c0 1.25-0.011719 2.8281-0.03125 4.7344-0.011719 1.8984-0.015625 3.1641-0.015625 3.7969 0 1.8672 0.046875 3.2109 0.14062 4.0312 0.10156 0.82422 0.26953 1.4219 0.5 1.7969 0.3125 0.49219 0.71094 0.86719 1.2031 1.125 0.48828 0.26172 1.0508 0.39062 1.6875 0.39062 1.5391 0 2.7539-0.59375 3.6406-1.7812 0.88281-1.1875 1.3281-2.8359 1.3281-4.9531v-11.469h7.4219v23.219h-7.4219v-3.3594c-1.1172 1.3555-2.2969 2.3555-3.5469 3-1.25 0.63281-2.6328 0.95312-4.1406 0.95312-2.6797 0-4.7188-0.81641-6.125-2.4531-1.4062-1.6445-2.1094-4.0352-2.1094-7.1719z"
         id="path220" />
    </symbol>
    <symbol
       id="m"
       overflow="visible">
      <path
         d="m3.5625-23.219h7.4219v22.797c0 3.1133-0.74609 5.4883-2.2344 7.125-1.4922 1.6328-3.6523 2.4531-6.4844 2.4531h-3.6719v-4.8594h1.2812c1.4062 0 2.3672-0.32031 2.8906-0.95312 0.53125-0.63672 0.79688-1.8906 0.79688-3.7656zm0-9.0312h7.4219v6.0469h-7.4219z"
         id="path223" />
    </symbol>
    <symbol
       id="l"
       overflow="visible">
      <path
         d="m22.328-22.484v6.0469c-1.0117-0.6875-2.0273-1.1953-3.0469-1.5312-1.0117-0.33203-2.0625-0.5-3.1562-0.5-2.0742 0-3.6875 0.60547-4.8438 1.8125-1.1484 1.2109-1.7188 2.8984-1.7188 5.0625 0 2.1797 0.57031 3.8711 1.7188 5.0781 1.1562 1.2109 2.7695 1.8125 4.8438 1.8125 1.1641 0 2.2695-0.17188 3.3125-0.51562 1.0391-0.34375 2.0039-0.85156 2.8906-1.5312v6.0625c-1.168 0.42969-2.3516 0.74219-3.5469 0.95312-1.1875 0.21875-2.3867 0.32812-3.5938 0.32812-4.1875 0-7.4648-1.0703-9.8281-3.2188-2.3555-2.1445-3.5312-5.1328-3.5312-8.9688 0-3.8203 1.1758-6.8047 3.5312-8.9531 2.3633-2.1562 5.6406-3.2344 9.8281-3.2344 1.2188 0 2.4141 0.10938 3.5938 0.32812 1.1875 0.21094 2.3672 0.53125 3.5469 0.96875z"
         id="path226" />
    </symbol>
  </defs>
  <g
     inkscape:label="Layer 1"
     inkscape:groupmode="layer"
     id="layer1">
    <g
       id="g317"
       transform="matrix(0.35277778,0,0,0.35277778,-99.53744,-6.8857102)">
      <path
         d="m 361.46,487.75 c -36.34,-1.1875 -81.77,-1.9531 -127.37,-4.2461 h 0.004 c -29.461,-2.0664 -58.609,-7.3047 -86.949,-15.625 -22.457,-5.8945 -44.207,-14.207 -64.871004,-24.793 -16.516,-8.9297 -31.156,-20.949 -43.133,-35.406 -23.301,-26.441 -37.078,-59.918 -39.145,-95.102 -1.2734,-20.207 5.3477,-39.398 10.699,-58.59 v 0.004 c 5.6992,-19.211 14.852,-37.223 27,-53.156 11.727,-17.234 28.434,-30.477 47.891,-37.953 3.6172,-1.0156 7.1172,-2.4102 10.445,-4.1602 26.320004,-16.047 56.551004,-18.766 85.758004,-24.539 24.879,-5.2656 50.012,-8.832 75.145,-11.973 13.926,-1.7812 28.105,-1.7812 42.285,-1.7812 5.7734,0 11.633,0.76562 16.98,0.67969 41.863,-0.67969 82.875,6.2812 123.38,11.207 30.145,3.6523 60.371,7.6406 89.922,14.094 h -0.004 c 19.691,5.1953 38.965,11.867 57.652,19.953 24.055,9.6406 45.41,24.965 62.242,44.664 9.5469,11.582 17.855,24.133 24.793,37.445 6.3477,11.621 11.852,23.68 16.473,36.086 3.3125,8.4688 5.5938,17.309 6.793,26.324 1.6133,13.16 1.6992,26.578 2.4609,39.824 v -0.004 c 0.19531,8.7969 -2.0703,17.473 -6.5352,25.051 -11.172,21.465 -26.164,40.715 -44.238,56.805 -8.3555,7.0195 -17.715,12.742 -27.766,16.98 -31.168,14.965 -64.645,24.555 -99.008,28.359 -18.594,1.4453 -37.105,4.8398 -55.699,6.5391 -10.273,1.0195 -20.805,0 -31.16,0 -21.656,1.1055 -43.309,1.9531 -74.047,3.3125 z M 307.034,128.92 v -2.375 c -19.105,1.1875 -38.379,1.0195 -57.23,3.7344 -50.18,7.1328 -100.02,15.625 -147.91,34.133 -27.094,9.9219 -50.082,28.637 -65.293,53.156 -11.781,19.137 -20.168,40.164 -24.797,62.152 -2.2852,11.375 -3.3945,22.957 -3.3086,34.559 -0.49609,6.5898 1.8633,13.07 6.4766,17.801 4.6133,4.7266 11.039,7.2461 17.637,6.9102 4.1055,0.67578 8.3086,0.44141 12.312,-0.67969 17.578,-6.8789 31.758,1.1875 45.344,10.188 25.473,16.98 59.438,18.68 82.871,1.1055 5.1445,-4.5156 11.695,-7.1094 18.535,-7.3398 6.8438,-0.23437 13.555,1.9102 18.996,6.0664 3.1406,1.9531 6.0273,4.332 9,6.5391 v -0.004 c 8.7734,7.5938 18.078,14.547 27.848,20.805 21.48,11.887 44.664,10.613 67.93,4.7539 3.3359,-1.3242 6.4766,-3.0938 9.3398,-5.2617 7.0469,-4.4141 13.926,-9.1719 21.145,-13.332 9.7266,-5.8125 21.375,-7.4922 32.348,-4.6719 11.23,2.9648 21.781,8.0664 31.078,15.031 4.0469,3.5781 8.668,6.4492 13.672,8.4883 18.867,5.3398 38.605,6.8984 58.078,4.5859 12.355,-1.7578 24.164,-6.2539 34.559,-13.16 10.867,-7.5586 22.078,-14.773 33.965,-21.398 4.4805,-2.1211 9.3164,-3.3867 14.266,-3.7344 14.621,-1.3242 29.262,2.3594 41.52,10.445 20.125,11.547 41.098,19.867 65.125,14.691 v -0.004 c 6.1211,-0.70703 11.73,-3.7539 15.656,-8.5 3.9219,-4.7461 5.8594,-10.828 5.4023,-16.973 -1.0195,-21.566 -1.0195,-43.391 -9.1719,-63.938 -3.4414,-8.4883 -7.3242,-16.793 -11.633,-24.879 -10.141,-22.457 -24.961,-42.492 -43.473,-58.758 -25.848,-20.441 -55.883,-34.938 -87.965,-42.453 -17.406,-4.1602 -34.898,-7.6406 -52.559,-10.699 h -0.004 c -46.73,-8.168 -93.867,-13.84 -141.2,-16.984 -12.824,-0.50781 -25.73,0 -38.551,0 z m 373.61,250.57 c -1.8359,-0.17188 -3.6836,-0.17188 -5.5195,0 -23.086,4.8164 -47.141,0.72266 -67.332,-11.461 -6.5391,-3.3945 -12.992,-7.2188 -19.867,-10.188 l -0.004,-0.004 c -7.2578,-3.1562 -15.242,-4.2656 -23.09,-3.2031 -7.8438,1.0625 -15.246,4.2578 -21.402,9.2344 -13.27,10.742 -28.137,19.336 -44.07,25.473 -22.195,6.0586 -45.57,6.3789 -67.926,0.93359 -8.6133,-1.3281 -16.789,-4.6719 -23.859,-9.7656 -3.5977,-2.8281 -7.4023,-5.3828 -11.379,-7.6406 -18,-10.359 -33.965,-14.266 -54.172,1.4453 v -0.004 c -10.215,9.3633 -23.098,15.301 -36.852,16.984 -12.855,0.50781 -25.727,0.25391 -38.551,-0.76562 -13.383,-1.4844 -25.867,-7.4727 -35.406,-16.98 -8.6953,-7.1172 -17.859,-13.641 -27.426,-19.531 -2.6016,-2.4844 -5.9805,-4 -9.5664,-4.293 -3.582,-0.29297 -7.1602,0.65234 -10.133,2.6797 -12.824,10.109 -28.445,16.039 -44.75,16.98 -18.68,1.5273 -36.598,1.2734 -52.136996,-11.547 h 0.0039 c -4.5977,-3.5547 -9.6875,-6.4141 -15.113,-8.4883 -4.2969,-2.4688 -9.25,-3.5352 -14.18,-3.0586 -14.199,4.2148 -29.395,3.6172 -43.219,-1.6992 1.3945,7.4219 3.4688,14.699 6.1953,21.738 13.023,27.297 33.664,50.238 59.438,66.059 13.703,7.582 28.019996,14 42.796996,19.191 31.668,11.547 64.68,18.996 98.238,22.16 32.691,3.0586 65.551,4.5 98.324,4.6719 40.418,0 80.836,-0.84766 121.17,-2.7188 29.039,-1.2734 57.992,-4.5 86.949,-7.3867 28.027,-3.8906 55.391,-11.574 81.344,-22.84 16.668,-5.6016 31.633,-15.363 43.477,-28.359 9.6797,-11.805 21.395,-22.078 27.766,-37.445 z M 280.204,210.35 c -9.4258,8.4922 -9.8477,15.367 0.50781,22.078 h 0.004 c 9.8477,6.9141 20.699,12.27 32.18,15.875 30.25,8.3477 62.156,8.6406 92.551,0.85156 9.4805,-1.7344 18.297,-6.0547 25.473,-12.48 3.918,-3.8008 5.7695,-9.25 4.9805,-14.652 -0.79297,-5.3984 -4.1289,-10.09 -8.9688,-12.605 -1.6133,-0.84766 -4.2461,0 -7.8984,0 1.7812,2.6328 2.6328,3.8203 3.3945,5.0938 6.4531,10.188 4.6719,16.98 -5.9453,21.992 h 0.004 c -3.7148,1.8281 -7.6133,3.25 -11.633,4.2461 -21.766,5.4883 -44.32,7.1562 -66.652,4.9258 -17.012,-1.5742 -33.516,-6.6328 -48.484,-14.859 -3.8203,-2.293 -9.5938,-4.8398 -7.6406,-9.9336 l -0.004,-0.004 c 2.4883,-4.2266 6.1445,-7.6484 10.531,-9.8477 2.1211,-1.2734 5.6055,0 8.4922,-0.42578 h -0.004 c 2.3984,-0.46094 4.7578,-1.1133 7.0508,-1.9531 -10.953,-8.4062 -17.492,-7.7266 -27.938,1.6992 z m 390.59,92.809 c 2.8945,6.9922 4.8906,14.324 5.9453,21.82 -0.61328,8.375 -2.1211,16.656 -4.5,24.707 10.02,-1.7812 11.379,-8.4922 12.48,-14.859 v 0.004 c 1.3633,-5.9062 1.1211,-12.066 -0.70312,-17.844 -1.8203,-5.7773 -5.1523,-10.961 -9.6562,-15.02 z m -653.3,-23.012 c -2.5117,7.0078 -4.082,14.316 -4.6719,21.738 0.61328,5.2969 2.5078,10.367 5.5195,14.773 0.76562,1.4453 4.2461,1.5273 6.4531,2.207 l 3.0586,-1.6133 c -13.84,-13.16 -2.3789,-27 -2.3789,-42.965 -3.9922,2.8867 -7.3867,3.9062 -7.9805,5.8594 z m 23.773,38.891 v -0.004 c 1.3711,0.85156 3.043,1.0664 4.5859,0.59766 1.1016,-0.98047 1.6445,-2.4453 1.4453,-3.9062 -2.7188,-6.2852 -5.7734,-12.398 -9.7656,-20.547 -4.418,11.375 -2.7188,19.781 3.7344,23.855 z m 606,39.141 c 6.2578,0.94922 12.223,-2.9688 13.84,-9.0859 1.7812,-4.332 3.6523,-9.5117 -3.9062,-12.992 -3.3945,7.2188 -6.3672,14.012 -9.9336,22.078 z M 64.357,314.792 c 3.1406,1.3594 6.8789,3.1406 9.5938,-3.4805 -8.4922,0 -7.2188,-12.312 -17.746,-11.973 0.76562,6.707 1.6133,12.566 8.1523,15.453 z m 312.81,-109.45 c 6.793,8.4922 12.141,8.4922 21.48,0.93359 -6.6367,-3.5898 -14.555,-3.9336 -21.48,-0.93359 z m -279.78,118.87 c -1.7578,0.71484 -2.9961,2.3164 -3.2422,4.1992 -0.24609,1.8789 0.53906,3.7461 2.0547,4.8867 3.8203,4.1602 6.6211,11.207 15.707,6.707 z"
         id="path231"
         style="fill:#ffffff" />
      <use
         y="615.10938"
         xlink:href="#u"
         id="use233"
         x="0"
         width="100%"
         height="100%" />
      <use
         x="31.15625"
         y="615.10938"
         xlink:href="#b"
         id="use235"
         width="100%"
         height="100%" />
      <use
         x="52.09375"
         y="615.10938"
         xlink:href="#d"
         id="use237"
         width="100%"
         height="100%" />
      <use
         x="80.886719"
         y="615.10938"
         xlink:href="#a"
         id="use239"
         width="100%"
         height="100%" />
      <use
         x="109.53906"
         y="615.10938"
         xlink:href="#c"
         id="use241"
         width="100%"
         height="100%" />
      <use
         x="129.83203"
         y="615.10938"
         xlink:href="#d"
         id="use243"
         width="100%"
         height="100%" />
      <use
         x="158.625"
         y="615.10938"
         xlink:href="#k"
         id="use245"
         width="100%"
         height="100%" />
      <use
         x="203.79688"
         y="615.10938"
         xlink:href="#j"
         id="use247"
         width="100%"
         height="100%" />
      <use
         x="234.1875"
         y="615.10938"
         xlink:href="#g"
         id="use249"
         width="100%"
         height="100%" />
      <use
         x="276.64062"
         y="615.10938"
         xlink:href="#i"
         id="use251"
         width="100%"
         height="100%" />
      <use
         x="311.88281"
         y="615.10938"
         xlink:href="#a"
         id="use253"
         width="100%"
         height="100%" />
      <use
         x="340.53125"
         y="615.10938"
         xlink:href="#g"
         id="use255"
         width="100%"
         height="100%" />
      <use
         x="368.20703"
         y="615.10938"
         xlink:href="#a"
         id="use257"
         width="100%"
         height="100%" />
      <use
         x="396.85547"
         y="615.10938"
         xlink:href="#f"
         id="use259"
         width="100%"
         height="100%" />
      <use
         x="427.08203"
         y="615.10938"
         xlink:href="#a"
         id="use261"
         width="100%"
         height="100%" />
      <use
         x="455.73047"
         y="615.10938"
         xlink:href="#b"
         id="use263"
         width="100%"
         height="100%" />
      <use
         x="476.66797"
         y="615.10938"
         xlink:href="#b"
         id="use265"
         width="100%"
         height="100%" />
      <use
         x="497.60547"
         y="615.10938"
         xlink:href="#a"
         id="use267"
         width="100%"
         height="100%" />
      <use
         x="541.03516"
         y="615.10938"
         xlink:href="#h"
         id="use269"
         width="100%"
         height="100%" />
      <use
         x="572.14844"
         y="615.10938"
         xlink:href="#a"
         id="use271"
         width="100%"
         height="100%" />
      <use
         x="600.79688"
         y="615.10938"
         xlink:href="#f"
         id="use273"
         width="100%"
         height="100%" />
      <use
         x="631.02344"
         y="615.10938"
         xlink:href="#c"
         id="use275"
         width="100%"
         height="100%" />
      <use
         x="651.31641"
         y="615.10938"
         xlink:href="#t"
         id="use277"
         width="100%"
         height="100%" />
      <use
         x="665.87109"
         y="615.10938"
         xlink:href="#s"
         id="use279"
         width="100%"
         height="100%" />
      <use
         y="657.56641"
         xlink:href="#r"
         id="use281"
         x="0"
         width="100%"
         height="100%" />
      <use
         x="18.46875"
         y="657.56641"
         xlink:href="#b"
         id="use283"
         width="100%"
         height="100%" />
      <use
         x="39.40625"
         y="657.56641"
         xlink:href="#e"
         id="use285"
         width="100%"
         height="100%" />
      <use
         x="68.574219"
         y="657.56641"
         xlink:href="#q"
         id="use287"
         width="100%"
         height="100%" />
      <use
         x="127.59375"
         y="657.56641"
         xlink:href="#c"
         id="use289"
         width="100%"
         height="100%" />
      <use
         x="147.88672"
         y="657.56641"
         xlink:href="#p"
         id="use291"
         width="100%"
         height="100%" />
      <use
         x="178.11328"
         y="657.56641"
         xlink:href="#d"
         id="use293"
         width="100%"
         height="100%" />
      <use
         x="221.6875"
         y="657.56641"
         xlink:href="#o"
         id="use295"
         width="100%"
         height="100%" />
      <use
         x="257.21875"
         y="657.56641"
         xlink:href="#e"
         id="use297"
         width="100%"
         height="100%" />
      <use
         x="286.38672"
         y="657.56641"
         xlink:href="#n"
         id="use299"
         width="100%"
         height="100%" />
      <use
         x="316.60938"
         y="657.56641"
         xlink:href="#f"
         id="use301"
         width="100%"
         height="100%" />
      <use
         x="361.61328"
         y="657.56641"
         xlink:href="#h"
         id="use303"
         width="100%"
         height="100%" />
      <use
         x="392.73047"
         y="657.56641"
         xlink:href="#b"
         id="use305"
         width="100%"
         height="100%" />
      <use
         x="413.66797"
         y="657.56641"
         xlink:href="#e"
         id="use307"
         width="100%"
         height="100%" />
      <use
         x="442.83594"
         y="657.56641"
         xlink:href="#m"
         id="use309"
         width="100%"
         height="100%" />
      <use
         x="457.38672"
         y="657.56641"
         xlink:href="#d"
         id="use311"
         width="100%"
         height="100%" />
      <use
         x="486.17969"
         y="657.56641"
         xlink:href="#l"
         id="use313"
         width="100%"
         height="100%" />
      <use
         x="511.34766"
         y="657.56641"
         xlink:href="#c"
         id="use315"
         width="100%"
         height="100%" />
    </g>
  </g>
</svg>
